<svg width="49" height="49" viewBox="0 0 49 49" fill="none" xmlns="http://www.w3.org/2000/svg">
<g clip-path="url(#clip0)">
<path d="M40.7773 30.5H37.7773C37.3795 30.5 36.998 30.658 36.7167 30.9393C36.4354 31.2206 36.2773 31.6022 36.2773 32V42.5H6.27734V12.5H19.7773C20.1752 12.5 20.5567 12.342 20.838 12.0607C21.1193 11.7794 21.2773 11.3978 21.2773 11V8C21.2773 7.60217 21.1193 7.22064 20.838 6.93934C20.5567 6.65804 20.1752 6.5 19.7773 6.5H4.77734C3.58387 6.5 2.43928 6.97411 1.59536 7.81802C0.751449 8.66193 0.277344 9.80653 0.277344 11L0.277344 44C0.277344 45.1935 0.751449 46.3381 1.59536 47.182C2.43928 48.0259 3.58387 48.5 4.77734 48.5H37.7773C38.9708 48.5 40.1154 48.0259 40.9593 47.182C41.8032 46.3381 42.2773 45.1935 42.2773 44V32C42.2773 31.6022 42.1193 31.2206 41.838 30.9393C41.5567 30.658 41.1752 30.5 40.7773 30.5ZM46.0273 0.5H34.0273C32.0239 0.5 31.0227 2.92906 32.4336 4.34375L35.7833 7.69344L12.9336 30.5347C12.7238 30.7437 12.5574 30.9921 12.4438 31.2656C12.3303 31.5391 12.2718 31.8323 12.2718 32.1284C12.2718 32.4246 12.3303 32.7178 12.4438 32.9913C12.5574 33.2648 12.7238 33.5132 12.9336 33.7222L15.0589 35.8437C15.2679 36.0535 15.5163 36.2199 15.7898 36.3335C16.0633 36.4471 16.3565 36.5055 16.6527 36.5055C16.9488 36.5055 17.242 36.4471 17.5155 36.3335C17.789 36.2199 18.0374 36.0535 18.2464 35.8437L41.0848 12.9987L44.4336 16.3437C45.8398 17.75 48.2773 16.7656 48.2773 14.75V2.75C48.2773 2.15326 48.0403 1.58097 47.6183 1.15901C47.1964 0.737053 46.6241 0.5 46.0273 0.5V0.5Z" fill="white"/>
</g>
<defs>
<clipPath id="clip0">
<rect width="48" height="48" fill="white" transform="translate(0.277344 0.5)"/>
</clipPath>
</defs>
</svg>
