<svg width="50" height="51" viewBox="0 0 50 51" fill="none" xmlns="http://www.w3.org/2000/svg">
<path fill-rule="evenodd" clip-rule="evenodd" d="M14.5209 1.12844C17.1556 1.00727 17.9956 0.980347 24.7069 0.980347C31.4182 0.980347 32.2583 1.00952 34.8907 1.12844C37.5231 1.24737 39.32 1.66698 40.8922 2.27508C42.5386 2.89663 44.0322 3.86824 45.2676 5.12482C46.5254 6.35672 47.4957 7.84667 48.1156 9.49369C48.7266 11.0644 49.1443 12.8595 49.2656 15.4849C49.3869 18.1215 49.4139 18.9607 49.4139 25.6632C49.4139 32.368 49.3847 33.2072 49.2656 35.8393C49.1466 38.4646 48.7266 40.2598 48.1156 41.8305C47.4957 43.4777 46.5238 44.9701 45.2676 46.2038C44.0322 47.4604 42.5386 48.4298 40.8922 49.0491C39.32 49.6594 37.5231 50.0768 34.8952 50.198C32.2583 50.3191 31.4182 50.3461 24.7069 50.3461C17.9956 50.3461 17.1556 50.3169 14.5209 50.198C11.893 50.0791 10.0961 49.6594 8.52389 49.0491C6.87509 48.4297 5.38122 47.4588 4.14627 46.2038C2.88932 44.9712 1.91662 43.4795 1.29599 41.8327C0.687302 40.262 0.26953 38.4669 0.148242 35.8415C0.026953 33.2049 0 32.3657 0 25.6632C0 18.9584 0.0291991 18.1192 0.148242 15.4894C0.267284 12.8595 0.687302 11.0644 1.29599 9.49369C1.91753 7.84685 2.89098 6.35518 4.14852 5.12258C5.38171 3.86712 6.87408 2.89539 8.52164 2.27508C10.0939 1.66698 11.8908 1.24961 14.5187 1.12844H14.5209ZM34.6908 5.57136C32.0853 5.45243 31.3037 5.42775 24.7069 5.42775C18.1102 5.42775 17.3285 5.45243 14.7231 5.57136C12.313 5.68131 11.0058 6.08297 10.1343 6.4218C8.98209 6.87058 8.15778 7.40238 7.29304 8.26628C6.47332 9.06298 5.84247 10.0329 5.44675 11.1048C5.1076 11.9754 4.70555 13.2814 4.59549 15.6891C4.47645 18.292 4.45174 19.0729 4.45174 25.6632C4.45174 32.2535 4.47645 33.0344 4.59549 35.6373C4.70555 38.045 5.1076 39.351 5.44675 40.2216C5.84207 41.292 6.47322 42.2636 7.29304 43.0601C8.0904 43.8792 9.06295 44.5097 10.1343 44.9046C11.0058 45.2435 12.313 45.6451 14.7231 45.7551C17.3285 45.874 18.1079 45.8987 24.7069 45.8987C31.3059 45.8987 32.0853 45.874 34.6908 45.7551C37.1008 45.6451 38.408 45.2435 39.2795 44.9046C40.4318 44.4558 41.2561 43.924 42.1208 43.0601C42.9406 42.2636 43.5718 41.292 43.9671 40.2216C44.3063 39.351 44.7083 38.045 44.8184 35.6373C44.9374 33.0344 44.9621 32.2535 44.9621 25.6632C44.9621 19.0729 44.9374 18.292 44.8184 15.6891C44.7083 13.2814 44.3063 11.9754 43.9671 11.1048C43.5179 9.95369 42.9856 9.13018 42.1208 8.26628C41.3233 7.44742 40.3525 6.81719 39.2795 6.4218C38.408 6.08297 37.1008 5.68131 34.6908 5.57136ZM21.5512 33.2723C23.3136 34.0052 25.276 34.1041 27.1033 33.5521C28.9306 33.0001 30.5094 31.8315 31.5701 30.2458C32.6307 28.6601 33.1074 26.7557 32.9187 24.8579C32.73 22.9601 31.8877 21.1866 30.5355 19.8403C29.6736 18.9797 28.6313 18.3208 27.4838 17.9109C26.3364 17.501 25.1122 17.3504 23.8995 17.4699C22.6867 17.5894 21.5156 17.976 20.4704 18.602C19.4252 19.2279 18.5319 20.0776 17.8548 21.0898C17.1777 22.1021 16.7338 23.2517 16.5548 24.4559C16.3758 25.6601 16.4664 26.889 16.8199 28.0541C17.1734 29.2192 17.7811 30.2915 18.5992 31.1938C19.4173 32.0961 20.4255 32.8059 21.5512 33.2723ZM15.7271 16.6921C16.9063 15.514 18.3063 14.5795 19.8471 13.9419C21.3878 13.3043 23.0392 12.9762 24.7069 12.9762C26.3746 12.9762 28.026 13.3043 29.5668 13.9419C31.1076 14.5795 32.5075 15.514 33.6868 16.6921C34.866 17.8702 35.8015 19.2688 36.4397 20.8081C37.0779 22.3474 37.4063 23.9971 37.4063 25.6632C37.4063 27.3293 37.0779 28.9791 36.4397 30.5183C35.8015 32.0576 34.866 33.4562 33.6868 34.6343C31.3052 37.0136 28.075 38.3503 24.7069 38.3503C21.3388 38.3503 18.1087 37.0136 15.7271 34.6343C13.3455 32.255 12.0075 29.028 12.0075 25.6632C12.0075 22.2984 13.3455 19.0714 15.7271 16.6921ZM40.2229 14.8656C40.5151 14.5902 40.7491 14.259 40.9109 13.8917C41.0727 13.5243 41.1591 13.1283 41.1649 12.727C41.1708 12.3257 41.096 11.9273 40.945 11.5554C40.7939 11.1835 40.5697 10.8457 40.2857 10.5619C40.0016 10.2781 39.6634 10.0541 39.2912 9.90324C38.9189 9.75236 38.5201 9.67764 38.1185 9.68349C37.7168 9.68934 37.3203 9.77565 36.9526 9.9373C36.5849 10.099 36.2534 10.3327 35.9778 10.6246C35.4417 11.1924 35.1481 11.9465 35.1595 12.727C35.1709 13.5074 35.4863 14.2527 36.0388 14.8046C36.5912 15.3566 37.3372 15.6717 38.1185 15.683C38.8997 15.6944 39.6546 15.4012 40.2229 14.8656Z" fill="white"/>
</svg>
