<svg width="50" height="50" viewBox="0 0 50 50" fill="none" xmlns="http://www.w3.org/2000/svg">
<path d="M45.3961 0H3.96761C1.77709 0 0 1.77536 0 3.96374V45.3519C0 47.5402 1.77709 49.3156 3.96761 49.3156H45.3961C47.5866 49.3156 49.3637 47.5402 49.3637 45.3519V3.96374C49.3637 1.77536 47.5866 0 45.3961 0ZM45.3961 45.3704C17.7648 45.3642 3.9491 45.358 3.9491 45.3519C3.95527 17.7475 3.96144 3.94525 3.96761 3.94525C31.599 3.95141 45.4146 3.95758 45.4146 3.96374C45.4085 31.5682 45.4023 45.3704 45.3961 45.3704ZM7.31817 18.4872H14.6425V42.0231H7.31817V18.4872ZM10.9834 15.2693C13.322 15.2693 15.2287 13.3707 15.2287 11.0282C15.2287 10.4712 15.1189 9.91975 14.9056 9.40519C14.6922 8.89063 14.3795 8.42309 13.9853 8.02926C13.5911 7.63544 13.1231 7.32303 12.608 7.1099C12.093 6.89676 11.5409 6.78706 10.9834 6.78706C10.4259 6.78706 9.87389 6.89676 9.35883 7.1099C8.84377 7.32303 8.37578 7.63544 7.98156 8.02926C7.58735 8.42309 7.27465 8.89063 7.0613 9.40519C6.84796 9.91975 6.73815 10.4712 6.73815 11.0282C6.73198 13.3707 8.63248 15.2693 10.9834 15.2693ZM26.5515 30.3784C26.5515 27.3085 27.1377 24.3372 30.9449 24.3372C34.6965 24.3372 34.7521 27.8448 34.7521 30.5757V42.0231H42.0702V29.1147C42.0702 22.7776 40.7004 17.9016 33.2897 17.9016C29.7293 17.9016 27.3413 19.8557 26.3602 21.705H26.2615V18.4872H19.2333V42.0231H26.5515V30.3784Z" fill="white"/>
</svg>
