<svg width="1225" height="414" viewBox="0 0 1225 414" fill="none" xmlns="http://www.w3.org/2000/svg">
<path d="M153.517 373.405C172.168 373.405 188.681 368.16 203.058 357.669C217.434 347.178 227.925 333.578 234.53 316.871H281.739C272.803 345.624 256.483 368.742 232.782 386.227C207.914 404.101 178.385 413.037 144.192 413.037C101.451 413.037 66.6759 398.467 39.8658 369.325C13.8329 340.961 0.816406 305.408 0.816406 262.668C0.816406 219.927 13.8329 184.375 39.8658 156.01C66.6759 126.869 101.451 112.298 144.192 112.298C178.385 112.298 207.914 121.235 232.782 139.108C256.483 156.593 272.803 179.712 281.739 208.465H234.53C227.925 191.757 217.434 178.158 203.058 167.667C188.681 157.176 172.168 151.931 153.517 151.931C134.867 151.931 118.936 154.845 105.725 160.673C92.9032 166.501 82.0237 174.467 73.087 184.569C54.048 205.551 44.5285 231.584 44.5285 262.668C44.5285 293.752 54.048 319.785 73.087 340.767C92.5146 362.526 119.325 373.405 153.517 373.405Z" fill="white" fill-opacity="0.1"/>
<path d="M563.82 361.748C540.506 395.941 505.731 413.037 459.493 413.037C417.53 413.037 383.337 398.467 356.916 369.325C331.271 340.572 318.449 305.02 318.449 262.668C318.449 220.316 331.271 184.763 356.916 156.01C383.337 126.869 418.501 112.298 462.408 112.298C506.314 112.298 540.118 129.589 563.82 164.17V0.395386H607.532V408.375H563.82V361.748ZM465.322 373.405C496.794 373.405 521.662 362.526 539.924 340.767C557.408 320.173 566.151 294.14 566.151 262.668C566.151 231.195 557.408 205.162 539.924 184.569C521.662 162.81 496.794 151.931 465.322 151.931C434.238 151.931 408.982 162.81 389.554 184.569C371.292 205.162 362.161 231.195 362.161 262.668C362.161 294.14 371.292 320.173 389.554 340.767C408.982 362.526 434.238 373.405 465.322 373.405Z" fill="black"/>
<path d="M719.728 161.256C739.156 128.617 768.686 112.298 808.318 112.298C827.746 112.298 845.619 117.544 861.938 128.035C878.646 138.137 891.663 152.513 900.988 171.164C914.199 146.685 934.792 129.2 962.767 118.709C974.035 114.435 986.663 112.298 1000.65 112.298C1015.03 112.298 1028.63 115.212 1041.45 121.041C1054.66 126.48 1066.32 134.446 1076.42 144.937C1098.18 168.25 1109.06 197.391 1109.06 232.361V408.375H1065.35V233.526C1065.35 209.436 1058.55 189.62 1044.95 174.078C1031.35 159.313 1014.06 151.931 993.075 151.931C970.927 151.931 952.471 159.119 937.706 173.495C922.164 188.26 914.393 208.465 914.393 234.109V408.375H870.681V233.526C870.681 209.436 863.881 189.62 850.282 174.078C836.682 159.313 819.392 151.931 798.41 151.931C776.263 151.931 757.806 159.119 743.042 173.495C727.499 188.26 719.728 208.465 719.728 234.109V408.375H676.016V116.961H719.728V161.256Z" fill="black"/>
<path d="M1224.42 348.926V408.375H1167.89V348.926H1224.42Z" fill="black"/>
</svg>
